<?xml version="1.0" encoding="utf-8"?>
<!-- Generator: Adobe Illustrator 27.1.1, SVG Export Plug-In . SVG Version: 6.00 Build 0)  -->
<svg version="1.1" id="Layer_1" xmlns="http://www.w3.org/2000/svg" xmlns:xlink="http://www.w3.org/1999/xlink" x="0px" y="0px"
	 viewBox="0 0 16 16" style="enable-background:new 0 0 16 16;" xml:space="preserve">
<style type="text/css">
	.st0{fill:#FFFFFF;}
</style>
<path class="st0" d="M0.3,0.3c0.4-0.4,1-0.4,1.4,0L8,6.6l6.3-6.3c0.4-0.4,1-0.4,1.4,0c0.4,0.4,0.4,1,0,1.4c0,0,0,0,0,0L9.4,8
	l6.3,6.3c0.4,0.4,0.4,1,0,1.4c-0.4,0.4-1,0.4-1.4,0L8,9.4l-6.3,6.3c-0.4,0.4-1,0.4-1.4,0c-0.4-0.4-0.4-1,0-1.4L6.6,8L0.3,1.7
	C-0.1,1.3-0.1,0.7,0.3,0.3z"/>
</svg>
